<?xml version="1.0" encoding="UTF-8" standalone="no"?>
<!-- Created with Inkscape (http://www.inkscape.org/) -->

<svg
   xmlns:dc="http://purl.org/dc/elements/1.1/"
   xmlns:cc="http://creativecommons.org/ns#"
   xmlns:rdf="http://www.w3.org/1999/02/22-rdf-syntax-ns#"
   xmlns:svg="http://www.w3.org/2000/svg"
   xmlns="http://www.w3.org/2000/svg"
   xmlns:sodipodi="http://sodipodi.sourceforge.net/DTD/sodipodi-0.dtd"
   xmlns:inkscape="http://www.inkscape.org/namespaces/inkscape"
   version="1.1"
   width="55"
   height="55"
   id="svg2"
   inkscape:version="0.48.4 r9939"
   sodipodi:docname="play-up.svg">
  <sodipodi:namedview
     pagecolor="#ffffff"
     bordercolor="#666666"
     borderopacity="1"
     objecttolerance="10"
     gridtolerance="10"
     guidetolerance="10"
     inkscape:pageopacity="0"
     inkscape:pageshadow="2"
     inkscape:window-width="640"
     inkscape:window-height="480"
     id="namedview2993"
     showgrid="false"
     inkscape:zoom="8.5818182"
     inkscape:cx="33.773469"
     inkscape:cy="18.561399"
     inkscape:window-x="0"
     inkscape:window-y="25"
     inkscape:window-maximized="0"
     inkscape:current-layer="svg2" />
  <metadata
     id="metadata20">
    <rdf:RDF>
      <cc:Work
         rdf:about="">
        <dc:format>image/svg+xml</dc:format>
        <dc:type
           rdf:resource="http://purl.org/dc/dcmitype/StillImage" />
        <dc:title />
      </cc:Work>
    </rdf:RDF>
  </metadata>
  <defs
     id="defs18" />
  <line
     x1="5"
     y1="39"
     x2="38"
     y2="39"
     id="line4"
     style="fill:#000000;stroke:#000000;stroke-width:3.5;stroke-opacity:1" />
  <line
     x1="4.9661016"
     y1="31"
     x2="26.966103"
     y2="31"
     id="line6"
     style="fill:#000000;stroke:#000000;stroke-width:3.5;stroke-opacity:1" />
  <line
     x1="4.8834743"
     y1="23"
     x2="17.883474"
     y2="23"
     id="line8"
     style="fill:#000000;stroke:#000000;stroke-width:3.5;stroke-opacity:1" />
  <line
     x1="5.2669487"
     y1="15"
     x2="9.2669487"
     y2="15"
     id="line10"
     style="fill:#000000;stroke:#000000;stroke-width:3.5;stroke-opacity:1" />
  <path
     d="m 46,16 7,7 -14,0 z"
     id="path14"
     style="fill:#000000;stroke:none" />
  <path
     d="m 52.221,33.7948 a 6.3000002,6.2999999 0 1 1 -12.6,0 6.3000002,6.2999999 0 1 1 12.6,0 z"
     id="path2986"
     style="fill:#ffffff;fill-opacity:1;fill-rule:nonzero;stroke:none"
     inkscape:connector-curvature="0" />
  <g
     id="g7"
     style="fill:#000000;fill-opacity:1;stroke:#000000;stroke-opacity:1"
     transform="matrix(0.3,0,0,0.3,37.671,25.5448)">
    <path
       d="M 27.497,5.051 C 39.961,5.071 50.045,15.155 50.065,27.618 50.045,40.08 39.961,50.164 27.497,50.184 15.036,50.164 4.952,40.08 4.93,27.618 4.952,15.155 15.036,5.07 27.497,5.051 m 0.003,2.25 c -0.001,0 -0.002,0 -0.003,0 -0.001,0 -0.002,0 -0.003,0 0,0 0.001,0 0.002,0 C 16.312,7.32 7.199,16.436 7.18,27.622 7.199,38.801 16.315,47.916 27.5,47.934 38.68,47.915 47.796,38.8 47.814,27.614 47.797,16.436 38.684,7.32 27.498,7.301 c 10e-4,0 0.002,0 0.002,0 l 0,0 z"
       id="path9"
       style="fill:#000000;fill-opacity:1;stroke:#000000;stroke-opacity:1"
       inkscape:connector-curvature="0" />
  </g>
  <polygon
     points="21.55,37.977 21.55,17.667 39.512,27.822 "
     id="polygon11"
     style="fill:#000000"
     transform="matrix(0.3,0,0,0.3,37.671,25.5448)" />
</svg>
